# xmcd
#
# Track frame offsets: 
#        182
#        14810
#        30712
#        41842
#        56035
#        67935
#        82995
#        94387
#        105135
#        119095
#        131790
#        148577
#
# Disc length: 2156 seconds
#
# Revision: 20
# Processed by: cddbd v1.5.2PL0 Copyright (c) Steve Scherf et al.
# Submitted via: ExactAudioCopyFreeDBPlugin 1.0
#
DISCID=ab086a0c
DTITLE=K D Lang - Shadowland
DYEAR=1988
DGENRE=Country
TTITLE0=K D Lang with The Jordanaires - Western Stars 
TTITLE1=K D Lang with Tennessee - Lock, Stock And Teardrops 
TTITLE2=K D Lang with Tennessee - Sugar Moon 
TTITLE3=K D Lang with The Jordanaires - I Wish I Didn't Love You So 
TTITLE4=(Waltz Me) Once Again Around The Dance Floor
TTITLE5=Black Coffee
TTITLE6=Shadowland
TTITLE7=K D Lang with Tennessee - Don't Let The Stars Get In Your Eyes
TTITLE7=
TTITLE8=K D Lang with The Jordanaires - Tears Don't Care Who Cries The
TTITLE8=m 
TTITLE9=K D Lang with Tennessee - I'm Down To My Last Cigarette 
TTITLE10=Busy Being Blue
TTITLE11=K D Lang with Brenda Lee and Loretta Lynn and Kitty Wells - Honky
TTITLE11=Tonk Angels' Medley (In The Evening (When The Sun Goes Down)
TTITLE11=You Nearly Lose Your Mind - Blues Stay Away From Me)
EXTD=YEAR: 1988
EXTT0=
EXTT1=
EXTT2=
EXTT3=
EXTT4=
EXTT5=
EXTT6=
EXTT7=
EXTT8=
EXTT9=
EXTT10=
EXTT11=
PLAYORDER=
